<mxfile host="Electron" agent="Mozilla/5.0 (Windows NT 10.0; Win64; x64) AppleWebKit/537.36 (KHTML, like Gecko) draw.io/24.7.8 Chrome/128.0.6613.36 Electron/32.0.1 Safari/537.36" version="24.7.8">
  <diagram name="Page-1" id="uT1DIEnCyaKrTP36LUqn">
    <mxGraphModel dx="811" dy="538" grid="1" gridSize="10" guides="1" tooltips="1" connect="1" arrows="1" fold="1" page="1" pageScale="1" pageWidth="669" pageHeight="323" math="0" shadow="0">
      <root>
        <mxCell id="0" />
        <mxCell id="1" parent="0" />
        <mxCell id="xDlarumvukKODH8n1AbI-1" value="" style="endArrow=classic;html=1;rounded=0;fillOpacity=50;" edge="1" parent="1">
          <mxGeometry width="50" height="50" relative="1" as="geometry">
            <mxPoint x="120" y="40" as="sourcePoint" />
            <mxPoint x="120" y="160" as="targetPoint" />
          </mxGeometry>
        </mxCell>
        <mxCell id="xDlarumvukKODH8n1AbI-2" value="" style="endArrow=classic;html=1;rounded=0;" edge="1" parent="1">
          <mxGeometry width="50" height="50" relative="1" as="geometry">
            <mxPoint x="120" y="40" as="sourcePoint" />
            <mxPoint x="500" y="40" as="targetPoint" />
          </mxGeometry>
        </mxCell>
        <mxCell id="xDlarumvukKODH8n1AbI-3" value="Cycles d&#39;horloge" style="text;strokeColor=none;align=center;fillColor=none;html=1;verticalAlign=middle;whiteSpace=wrap;rounded=0;" vertex="1" parent="1">
          <mxGeometry x="240" y="10" width="150" height="30" as="geometry" />
        </mxCell>
        <mxCell id="xDlarumvukKODH8n1AbI-4" value="Instructions" style="text;strokeColor=none;align=center;fillColor=none;html=1;verticalAlign=middle;whiteSpace=wrap;rounded=0;" vertex="1" parent="1">
          <mxGeometry x="50" y="85" width="60" height="30" as="geometry" />
        </mxCell>
        <mxCell id="xDlarumvukKODH8n1AbI-5" value="" style="rounded=0;whiteSpace=wrap;html=1;fillColor=#CDA2BE;fillOpacity=50;" vertex="1" parent="1">
          <mxGeometry x="120" y="40" width="50" height="20" as="geometry" />
        </mxCell>
        <mxCell id="xDlarumvukKODH8n1AbI-6" value="" style="rounded=0;whiteSpace=wrap;html=1;fillColor=#A9C4EB;fillOpacity=50;" vertex="1" parent="1">
          <mxGeometry x="170" y="40" width="50" height="20" as="geometry" />
        </mxCell>
        <mxCell id="xDlarumvukKODH8n1AbI-7" value="" style="rounded=0;whiteSpace=wrap;html=1;fillColor=#9AC7BF;fillOpacity=50;" vertex="1" parent="1">
          <mxGeometry x="220" y="40" width="50" height="20" as="geometry" />
        </mxCell>
        <mxCell id="xDlarumvukKODH8n1AbI-8" value="" style="rounded=0;whiteSpace=wrap;html=1;fillColor=#B9E0A5;fillOpacity=50;" vertex="1" parent="1">
          <mxGeometry x="270" y="40" width="50" height="20" as="geometry" />
        </mxCell>
        <mxCell id="xDlarumvukKODH8n1AbI-9" value="" style="rounded=0;whiteSpace=wrap;html=1;fillColor=#CDA2BE;fillOpacity=50;" vertex="1" parent="1">
          <mxGeometry x="170" y="60" width="50" height="20" as="geometry" />
        </mxCell>
        <mxCell id="xDlarumvukKODH8n1AbI-10" value="" style="rounded=0;whiteSpace=wrap;html=1;fillColor=#A9C4EB;fillOpacity=50;" vertex="1" parent="1">
          <mxGeometry x="220" y="60" width="50" height="20" as="geometry" />
        </mxCell>
        <mxCell id="xDlarumvukKODH8n1AbI-11" value="" style="rounded=0;whiteSpace=wrap;html=1;fillColor=#9AC7BF;fillOpacity=50;" vertex="1" parent="1">
          <mxGeometry x="270" y="60" width="50" height="20" as="geometry" />
        </mxCell>
        <mxCell id="xDlarumvukKODH8n1AbI-12" value="" style="rounded=0;whiteSpace=wrap;html=1;fillColor=#B9E0A5;fillOpacity=50;" vertex="1" parent="1">
          <mxGeometry x="320" y="60" width="50" height="20" as="geometry" />
        </mxCell>
        <mxCell id="xDlarumvukKODH8n1AbI-13" value="" style="rounded=0;whiteSpace=wrap;html=1;fillColor=#CDA2BE;fillOpacity=50;" vertex="1" parent="1">
          <mxGeometry x="220" y="80" width="50" height="20" as="geometry" />
        </mxCell>
        <mxCell id="xDlarumvukKODH8n1AbI-14" value="" style="rounded=0;whiteSpace=wrap;html=1;fillColor=#A9C4EB;fillOpacity=50;" vertex="1" parent="1">
          <mxGeometry x="270" y="80" width="50" height="20" as="geometry" />
        </mxCell>
        <mxCell id="xDlarumvukKODH8n1AbI-15" value="" style="rounded=0;whiteSpace=wrap;html=1;fillColor=#9AC7BF;fillOpacity=50;" vertex="1" parent="1">
          <mxGeometry x="320" y="80" width="50" height="20" as="geometry" />
        </mxCell>
        <mxCell id="xDlarumvukKODH8n1AbI-16" value="" style="rounded=0;whiteSpace=wrap;html=1;fillColor=#B9E0A5;fillOpacity=50;" vertex="1" parent="1">
          <mxGeometry x="370" y="80" width="50" height="20" as="geometry" />
        </mxCell>
        <mxCell id="xDlarumvukKODH8n1AbI-17" value="" style="rounded=0;whiteSpace=wrap;html=1;fillColor=#CDA2BE;fillOpacity=50;" vertex="1" parent="1">
          <mxGeometry x="270" y="100" width="50" height="20" as="geometry" />
        </mxCell>
        <mxCell id="xDlarumvukKODH8n1AbI-18" value="" style="rounded=0;whiteSpace=wrap;html=1;fillColor=#A9C4EB;fillOpacity=50;" vertex="1" parent="1">
          <mxGeometry x="320" y="100" width="50" height="20" as="geometry" />
        </mxCell>
        <mxCell id="xDlarumvukKODH8n1AbI-19" value="" style="rounded=0;whiteSpace=wrap;html=1;fillColor=#9AC7BF;fillOpacity=50;" vertex="1" parent="1">
          <mxGeometry x="370" y="100" width="50" height="20" as="geometry" />
        </mxCell>
        <mxCell id="xDlarumvukKODH8n1AbI-20" value="" style="rounded=0;whiteSpace=wrap;html=1;fillColor=#B9E0A5;fillOpacity=50;" vertex="1" parent="1">
          <mxGeometry x="420" y="100" width="50" height="20" as="geometry" />
        </mxCell>
        <mxCell id="xDlarumvukKODH8n1AbI-21" value="" style="rounded=0;whiteSpace=wrap;html=1;fillColor=#CDA2BE;strokeColor=none;" vertex="1" parent="1">
          <mxGeometry x="530" y="40" width="10" height="10" as="geometry" />
        </mxCell>
        <mxCell id="xDlarumvukKODH8n1AbI-22" value="" style="rounded=0;whiteSpace=wrap;html=1;fillColor=#A9C4EB;strokeColor=none;" vertex="1" parent="1">
          <mxGeometry x="530" y="60" width="10" height="10" as="geometry" />
        </mxCell>
        <mxCell id="xDlarumvukKODH8n1AbI-23" value="" style="rounded=0;whiteSpace=wrap;html=1;fillColor=#9AC7BF;strokeColor=none;" vertex="1" parent="1">
          <mxGeometry x="530" y="80" width="10" height="10" as="geometry" />
        </mxCell>
        <mxCell id="xDlarumvukKODH8n1AbI-24" value="" style="rounded=0;whiteSpace=wrap;html=1;fillColor=#B9E0A5;strokeColor=none;" vertex="1" parent="1">
          <mxGeometry x="530" y="100" width="10" height="10" as="geometry" />
        </mxCell>
        <mxCell id="xDlarumvukKODH8n1AbI-25" value="Fetch" style="text;strokeColor=none;align=left;fillColor=none;html=1;verticalAlign=middle;whiteSpace=wrap;rounded=0;" vertex="1" parent="1">
          <mxGeometry x="550" y="35" width="60" height="20" as="geometry" />
        </mxCell>
        <mxCell id="xDlarumvukKODH8n1AbI-26" value="Decode" style="text;strokeColor=none;align=left;fillColor=none;html=1;verticalAlign=middle;whiteSpace=wrap;rounded=0;" vertex="1" parent="1">
          <mxGeometry x="550" y="55" width="60" height="20" as="geometry" />
        </mxCell>
        <mxCell id="xDlarumvukKODH8n1AbI-27" value="Execute" style="text;strokeColor=none;align=left;fillColor=none;html=1;verticalAlign=middle;whiteSpace=wrap;rounded=0;" vertex="1" parent="1">
          <mxGeometry x="550" y="75" width="60" height="20" as="geometry" />
        </mxCell>
        <mxCell id="xDlarumvukKODH8n1AbI-28" value="Writeback" style="text;strokeColor=none;align=left;fillColor=none;html=1;verticalAlign=middle;whiteSpace=wrap;rounded=0;" vertex="1" parent="1">
          <mxGeometry x="550" y="95" width="60" height="20" as="geometry" />
        </mxCell>
        <mxCell id="xDlarumvukKODH8n1AbI-36" value="" style="endArrow=classic;html=1;rounded=0;" edge="1" parent="1">
          <mxGeometry width="50" height="50" relative="1" as="geometry">
            <mxPoint x="120" y="178" as="sourcePoint" />
            <mxPoint x="120" y="298" as="targetPoint" />
          </mxGeometry>
        </mxCell>
        <mxCell id="xDlarumvukKODH8n1AbI-37" value="" style="endArrow=classic;html=1;rounded=0;" edge="1" parent="1">
          <mxGeometry width="50" height="50" relative="1" as="geometry">
            <mxPoint x="120" y="178" as="sourcePoint" />
            <mxPoint x="500" y="178" as="targetPoint" />
          </mxGeometry>
        </mxCell>
        <mxCell id="xDlarumvukKODH8n1AbI-38" value="Instructions" style="text;strokeColor=none;align=center;fillColor=none;html=1;verticalAlign=middle;whiteSpace=wrap;rounded=0;" vertex="1" parent="1">
          <mxGeometry x="50" y="223" width="60" height="30" as="geometry" />
        </mxCell>
        <mxCell id="xDlarumvukKODH8n1AbI-39" value="" style="rounded=0;whiteSpace=wrap;html=1;fillColor=#CDA2BE;fillOpacity=50;" vertex="1" parent="1">
          <mxGeometry x="120" y="178" width="20" height="20" as="geometry" />
        </mxCell>
        <mxCell id="xDlarumvukKODH8n1AbI-40" value="" style="rounded=0;whiteSpace=wrap;html=1;fillColor=#A9C4EB;fillOpacity=50;" vertex="1" parent="1">
          <mxGeometry x="140" y="178" width="20" height="20" as="geometry" />
        </mxCell>
        <mxCell id="xDlarumvukKODH8n1AbI-41" value="" style="rounded=0;whiteSpace=wrap;html=1;fillColor=#9AC7BF;fillOpacity=50;" vertex="1" parent="1">
          <mxGeometry x="160" y="178" width="20" height="20" as="geometry" />
        </mxCell>
        <mxCell id="xDlarumvukKODH8n1AbI-42" value="" style="rounded=0;whiteSpace=wrap;html=1;fillColor=#B9E0A5;fillOpacity=50;" vertex="1" parent="1">
          <mxGeometry x="180" y="178" width="20" height="20" as="geometry" />
        </mxCell>
        <mxCell id="xDlarumvukKODH8n1AbI-55" value="" style="rounded=0;whiteSpace=wrap;html=1;fillColor=#CDA2BE;strokeColor=none;" vertex="1" parent="1">
          <mxGeometry x="530" y="178" width="10" height="10" as="geometry" />
        </mxCell>
        <mxCell id="xDlarumvukKODH8n1AbI-56" value="" style="rounded=0;whiteSpace=wrap;html=1;fillColor=#A9C4EB;strokeColor=none;" vertex="1" parent="1">
          <mxGeometry x="530" y="198" width="10" height="10" as="geometry" />
        </mxCell>
        <mxCell id="xDlarumvukKODH8n1AbI-57" value="" style="rounded=0;whiteSpace=wrap;html=1;fillColor=#9AC7BF;strokeColor=none;" vertex="1" parent="1">
          <mxGeometry x="530" y="218" width="10" height="10" as="geometry" />
        </mxCell>
        <mxCell id="xDlarumvukKODH8n1AbI-58" value="" style="rounded=0;whiteSpace=wrap;html=1;fillColor=#B9E0A5;strokeColor=none;" vertex="1" parent="1">
          <mxGeometry x="530" y="238" width="10" height="10" as="geometry" />
        </mxCell>
        <mxCell id="xDlarumvukKODH8n1AbI-59" value="Fetch IF1" style="text;strokeColor=none;align=left;fillColor=none;html=1;verticalAlign=middle;whiteSpace=wrap;rounded=0;" vertex="1" parent="1">
          <mxGeometry x="550" y="173" width="60" height="20" as="geometry" />
        </mxCell>
        <mxCell id="xDlarumvukKODH8n1AbI-60" value="Fetch IF2" style="text;strokeColor=none;align=left;fillColor=none;html=1;verticalAlign=middle;whiteSpace=wrap;rounded=0;" vertex="1" parent="1">
          <mxGeometry x="550" y="193" width="60" height="20" as="geometry" />
        </mxCell>
        <mxCell id="xDlarumvukKODH8n1AbI-61" value="Decode ID1" style="text;strokeColor=none;align=left;fillColor=none;html=1;verticalAlign=middle;whiteSpace=wrap;rounded=0;" vertex="1" parent="1">
          <mxGeometry x="550" y="213" width="80" height="20" as="geometry" />
        </mxCell>
        <mxCell id="xDlarumvukKODH8n1AbI-62" value="Decode ID2" style="text;strokeColor=none;align=left;fillColor=none;html=1;verticalAlign=middle;whiteSpace=wrap;rounded=0;" vertex="1" parent="1">
          <mxGeometry x="550" y="233" width="80" height="20" as="geometry" />
        </mxCell>
        <mxCell id="xDlarumvukKODH8n1AbI-63" value="" style="rounded=0;whiteSpace=wrap;html=1;fillColor=#F19C99;fillOpacity=50;" vertex="1" parent="1">
          <mxGeometry x="200" y="178" width="20" height="20" as="geometry" />
        </mxCell>
        <mxCell id="xDlarumvukKODH8n1AbI-64" value="" style="rounded=0;whiteSpace=wrap;html=1;fillColor=#FFE599;fillOpacity=50;" vertex="1" parent="1">
          <mxGeometry x="220" y="178" width="20" height="20" as="geometry" />
        </mxCell>
        <mxCell id="xDlarumvukKODH8n1AbI-65" value="" style="rounded=0;whiteSpace=wrap;html=1;fillColor=#FFB570;fillOpacity=50;" vertex="1" parent="1">
          <mxGeometry x="240" y="178" width="20" height="20" as="geometry" />
        </mxCell>
        <mxCell id="xDlarumvukKODH8n1AbI-66" value="" style="rounded=0;whiteSpace=wrap;html=1;fillColor=#CDA2BE;fillOpacity=50;" vertex="1" parent="1">
          <mxGeometry x="140" y="198" width="20" height="20" as="geometry" />
        </mxCell>
        <mxCell id="xDlarumvukKODH8n1AbI-67" value="" style="rounded=0;whiteSpace=wrap;html=1;fillColor=#A9C4EB;fillOpacity=50;" vertex="1" parent="1">
          <mxGeometry x="160" y="198" width="20" height="20" as="geometry" />
        </mxCell>
        <mxCell id="xDlarumvukKODH8n1AbI-68" value="" style="rounded=0;whiteSpace=wrap;html=1;fillColor=#9AC7BF;fillOpacity=50;" vertex="1" parent="1">
          <mxGeometry x="180" y="198" width="20" height="20" as="geometry" />
        </mxCell>
        <mxCell id="xDlarumvukKODH8n1AbI-69" value="" style="rounded=0;whiteSpace=wrap;html=1;fillColor=#B9E0A5;fillOpacity=50;" vertex="1" parent="1">
          <mxGeometry x="200" y="198" width="20" height="20" as="geometry" />
        </mxCell>
        <mxCell id="xDlarumvukKODH8n1AbI-70" value="" style="rounded=0;whiteSpace=wrap;html=1;fillColor=#F19C99;fillOpacity=50;" vertex="1" parent="1">
          <mxGeometry x="220" y="198" width="20" height="20" as="geometry" />
        </mxCell>
        <mxCell id="xDlarumvukKODH8n1AbI-71" value="" style="rounded=0;whiteSpace=wrap;html=1;fillColor=#FFE599;fillOpacity=50;" vertex="1" parent="1">
          <mxGeometry x="240" y="198" width="20" height="20" as="geometry" />
        </mxCell>
        <mxCell id="xDlarumvukKODH8n1AbI-72" value="" style="rounded=0;whiteSpace=wrap;html=1;fillColor=#FFB570;fillOpacity=50;" vertex="1" parent="1">
          <mxGeometry x="260" y="198" width="20" height="20" as="geometry" />
        </mxCell>
        <mxCell id="xDlarumvukKODH8n1AbI-73" value="" style="rounded=0;whiteSpace=wrap;html=1;fillColor=#CDA2BE;fillOpacity=50;" vertex="1" parent="1">
          <mxGeometry x="160" y="218" width="20" height="20" as="geometry" />
        </mxCell>
        <mxCell id="xDlarumvukKODH8n1AbI-74" value="" style="rounded=0;whiteSpace=wrap;html=1;fillColor=#A9C4EB;fillOpacity=50;" vertex="1" parent="1">
          <mxGeometry x="180" y="218" width="20" height="20" as="geometry" />
        </mxCell>
        <mxCell id="xDlarumvukKODH8n1AbI-75" value="" style="rounded=0;whiteSpace=wrap;html=1;fillColor=#9AC7BF;fillOpacity=50;" vertex="1" parent="1">
          <mxGeometry x="200" y="218" width="20" height="20" as="geometry" />
        </mxCell>
        <mxCell id="xDlarumvukKODH8n1AbI-76" value="" style="rounded=0;whiteSpace=wrap;html=1;fillColor=#B9E0A5;fillOpacity=50;" vertex="1" parent="1">
          <mxGeometry x="220" y="218" width="20" height="20" as="geometry" />
        </mxCell>
        <mxCell id="xDlarumvukKODH8n1AbI-77" value="" style="rounded=0;whiteSpace=wrap;html=1;fillColor=#F19C99;fillOpacity=50;" vertex="1" parent="1">
          <mxGeometry x="240" y="218" width="20" height="20" as="geometry" />
        </mxCell>
        <mxCell id="xDlarumvukKODH8n1AbI-78" value="" style="rounded=0;whiteSpace=wrap;html=1;fillColor=#FFE599;fillOpacity=50;" vertex="1" parent="1">
          <mxGeometry x="260" y="218" width="20" height="20" as="geometry" />
        </mxCell>
        <mxCell id="xDlarumvukKODH8n1AbI-79" value="" style="rounded=0;whiteSpace=wrap;html=1;fillColor=#FFB570;fillOpacity=50;" vertex="1" parent="1">
          <mxGeometry x="280" y="218" width="20" height="20" as="geometry" />
        </mxCell>
        <mxCell id="xDlarumvukKODH8n1AbI-80" value="" style="rounded=0;whiteSpace=wrap;html=1;fillColor=#CDA2BE;fillOpacity=50;" vertex="1" parent="1">
          <mxGeometry x="180" y="238" width="20" height="20" as="geometry" />
        </mxCell>
        <mxCell id="xDlarumvukKODH8n1AbI-81" value="" style="rounded=0;whiteSpace=wrap;html=1;fillColor=#A9C4EB;fillOpacity=50;" vertex="1" parent="1">
          <mxGeometry x="200" y="238" width="20" height="20" as="geometry" />
        </mxCell>
        <mxCell id="xDlarumvukKODH8n1AbI-82" value="" style="rounded=0;whiteSpace=wrap;html=1;fillColor=#9AC7BF;fillOpacity=50;" vertex="1" parent="1">
          <mxGeometry x="220" y="238" width="20" height="20" as="geometry" />
        </mxCell>
        <mxCell id="xDlarumvukKODH8n1AbI-83" value="" style="rounded=0;whiteSpace=wrap;html=1;fillColor=#B9E0A5;fillOpacity=50;" vertex="1" parent="1">
          <mxGeometry x="240" y="238" width="20" height="20" as="geometry" />
        </mxCell>
        <mxCell id="xDlarumvukKODH8n1AbI-84" value="" style="rounded=0;whiteSpace=wrap;html=1;fillColor=#F19C99;fillOpacity=50;" vertex="1" parent="1">
          <mxGeometry x="260" y="238" width="20" height="20" as="geometry" />
        </mxCell>
        <mxCell id="xDlarumvukKODH8n1AbI-85" value="" style="rounded=0;whiteSpace=wrap;html=1;fillColor=#FFE599;fillOpacity=50;" vertex="1" parent="1">
          <mxGeometry x="280" y="238" width="20" height="20" as="geometry" />
        </mxCell>
        <mxCell id="xDlarumvukKODH8n1AbI-86" value="" style="rounded=0;whiteSpace=wrap;html=1;fillColor=#FFB570;fillOpacity=50;" vertex="1" parent="1">
          <mxGeometry x="300" y="238" width="20" height="20" as="geometry" />
        </mxCell>
        <mxCell id="xDlarumvukKODH8n1AbI-87" value="" style="rounded=0;whiteSpace=wrap;html=1;fillColor=#CDA2BE;fillOpacity=50;" vertex="1" parent="1">
          <mxGeometry x="200" y="258" width="20" height="20" as="geometry" />
        </mxCell>
        <mxCell id="xDlarumvukKODH8n1AbI-88" value="" style="rounded=0;whiteSpace=wrap;html=1;fillColor=#A9C4EB;fillOpacity=50;" vertex="1" parent="1">
          <mxGeometry x="220" y="258" width="20" height="20" as="geometry" />
        </mxCell>
        <mxCell id="xDlarumvukKODH8n1AbI-89" value="" style="rounded=0;whiteSpace=wrap;html=1;fillColor=#9AC7BF;fillOpacity=50;" vertex="1" parent="1">
          <mxGeometry x="240" y="258" width="20" height="20" as="geometry" />
        </mxCell>
        <mxCell id="xDlarumvukKODH8n1AbI-90" value="" style="rounded=0;whiteSpace=wrap;html=1;fillColor=#B9E0A5;fillOpacity=50;" vertex="1" parent="1">
          <mxGeometry x="260" y="258" width="20" height="20" as="geometry" />
        </mxCell>
        <mxCell id="xDlarumvukKODH8n1AbI-91" value="" style="rounded=0;whiteSpace=wrap;html=1;fillColor=#F19C99;fillOpacity=50;" vertex="1" parent="1">
          <mxGeometry x="280" y="258" width="20" height="20" as="geometry" />
        </mxCell>
        <mxCell id="xDlarumvukKODH8n1AbI-92" value="" style="rounded=0;whiteSpace=wrap;html=1;fillColor=#FFE599;fillOpacity=50;" vertex="1" parent="1">
          <mxGeometry x="300" y="258" width="20" height="20" as="geometry" />
        </mxCell>
        <mxCell id="xDlarumvukKODH8n1AbI-93" value="" style="rounded=0;whiteSpace=wrap;html=1;fillColor=#FFB570;fillOpacity=50;" vertex="1" parent="1">
          <mxGeometry x="320" y="258" width="20" height="20" as="geometry" />
        </mxCell>
        <mxCell id="xDlarumvukKODH8n1AbI-94" value="" style="rounded=0;whiteSpace=wrap;html=1;fillColor=#F19C99;strokeColor=none;" vertex="1" parent="1">
          <mxGeometry x="530" y="259" width="10" height="10" as="geometry" />
        </mxCell>
        <mxCell id="xDlarumvukKODH8n1AbI-95" value="" style="rounded=0;whiteSpace=wrap;html=1;fillColor=#FFE599;strokeColor=none;" vertex="1" parent="1">
          <mxGeometry x="530" y="279" width="10" height="10" as="geometry" />
        </mxCell>
        <mxCell id="xDlarumvukKODH8n1AbI-96" value="" style="rounded=0;whiteSpace=wrap;html=1;fillColor=#FFCE9F;strokeColor=none;" vertex="1" parent="1">
          <mxGeometry x="530" y="299" width="10" height="10" as="geometry" />
        </mxCell>
        <mxCell id="xDlarumvukKODH8n1AbI-97" value="Execute EX1" style="text;strokeColor=none;align=left;fillColor=none;html=1;verticalAlign=middle;whiteSpace=wrap;rounded=0;" vertex="1" parent="1">
          <mxGeometry x="550" y="254" width="80" height="20" as="geometry" />
        </mxCell>
        <mxCell id="xDlarumvukKODH8n1AbI-98" value="Execute EX2" style="text;strokeColor=none;align=left;fillColor=none;html=1;verticalAlign=middle;whiteSpace=wrap;rounded=0;" vertex="1" parent="1">
          <mxGeometry x="550" y="274" width="80" height="20" as="geometry" />
        </mxCell>
        <mxCell id="xDlarumvukKODH8n1AbI-99" value="Writeback WB" style="text;strokeColor=none;align=left;fillColor=none;html=1;verticalAlign=middle;whiteSpace=wrap;rounded=0;" vertex="1" parent="1">
          <mxGeometry x="550" y="294" width="80" height="20" as="geometry" />
        </mxCell>
      </root>
    </mxGraphModel>
  </diagram>
</mxfile>
